<svg xmlns="http://www.w3.org/2000/svg" width="1320" height="860" viewBox="0 0 1320 860" role="img" aria-labelledby="title desc">
  <title id="title">Inventory AI dark operations preview</title>
  <desc id="desc">A dark product preview showing OTOKI-style import validation, stockout risk, FEFO lot priority, and natural-language query output.</desc>
  <defs>
    <linearGradient id="panel" x1="0" y1="0" x2="1" y2="1">
      <stop offset="0" stop-color="#1c1c26"/>
      <stop offset="1" stop-color="#101016"/>
    </linearGradient>
    <linearGradient id="gold" x1="0" y1="0" x2="1" y2="1">
      <stop offset="0" stop-color="#ffd76a"/>
      <stop offset="1" stop-color="#d4a843"/>
    </linearGradient>
    <linearGradient id="red" x1="0" y1="0" x2="1" y2="1">
      <stop offset="0" stop-color="#ff6b5f"/>
      <stop offset="1" stop-color="#c72c2c"/>
    </linearGradient>
    <filter id="shadow" x="-12%" y="-12%" width="124%" height="124%">
      <feDropShadow dx="0" dy="26" stdDeviation="24" flood-color="#000000" flood-opacity="0.45"/>
    </filter>
    <pattern id="grid" width="48" height="48" patternUnits="userSpaceOnUse">
      <path d="M48 0H0V48" fill="none" stroke="#ffffff" stroke-opacity="0.035"/>
    </pattern>
  </defs>

  <rect width="1320" height="860" fill="transparent"/>
  <g filter="url(#shadow)">
    <rect x="72" y="78" width="1176" height="704" rx="26" fill="url(#panel)" stroke="#ffffff" stroke-opacity="0.10"/>
    <rect x="72" y="78" width="1176" height="704" rx="26" fill="url(#grid)"/>

    <rect x="118" y="126" width="1084" height="76" rx="16" fill="#0a0a0f" fill-opacity="0.74" stroke="#ffffff" stroke-opacity="0.08"/>
    <circle cx="156" cy="164" r="7" fill="#ef4444"/>
    <circle cx="184" cy="164" r="7" fill="#f59e0b"/>
    <circle cx="212" cy="164" r="7" fill="#34d399"/>
    <text x="252" y="172" fill="#f0ede8" font-family="Geist, Arial, sans-serif" font-size="22" font-weight="600">inventory-ai / otoki-north-america-pilot</text>
    <rect x="990" y="143" width="172" height="42" rx="21" fill="#3ecf8e" fill-opacity="0.12"/>
    <circle cx="1016" cy="164" r="6" fill="#3ecf8e"/>
    <text x="1032" y="171" fill="#7ee7ba" font-family="Geist, Arial, sans-serif" font-size="18" font-weight="500">Views fresh</text>

    <rect x="118" y="242" width="380" height="174" rx="20" fill="#13131a" fill-opacity="0.94" stroke="#ffffff" stroke-opacity="0.10"/>
    <text x="152" y="286" fill="#d4a843" font-family="Geist, Arial, sans-serif" font-size="22" font-weight="700">Import checklist</text>
    <text x="152" y="326" fill="#a6a09a" font-family="Geist, Arial, sans-serif" font-size="18">products.csv</text>
    <text x="402" y="326" fill="#3ecf8e" font-family="Geist Mono, Consolas, monospace" font-size="17">110 rows</text>
    <text x="152" y="358" fill="#a6a09a" font-family="Geist, Arial, sans-serif" font-size="18">inventory_lots.csv</text>
    <text x="402" y="358" fill="#3ecf8e" font-family="Geist Mono, Consolas, monospace" font-size="17">555 rows</text>
    <text x="152" y="390" fill="#a6a09a" font-family="Geist, Arial, sans-serif" font-size="18">orders.csv</text>
    <text x="402" y="390" fill="#3ecf8e" font-family="Geist Mono, Consolas, monospace" font-size="17">4,907 rows</text>

    <rect x="526" y="242" width="302" height="174" rx="20" fill="#13131a" fill-opacity="0.94" stroke="#ffffff" stroke-opacity="0.10"/>
    <text x="558" y="286" fill="#f0ede8" font-family="Geist, Arial, sans-serif" font-size="22" font-weight="700">Waste opportunity</text>
    <text x="558" y="346" fill="#ffd76a" font-family="Geist, Arial, sans-serif" font-size="58" font-weight="800">$428K</text>
    <text x="558" y="386" fill="#a6a09a" font-family="Geist, Arial, sans-serif" font-size="18">near-expiring lots surfaced</text>

    <rect x="856" y="242" width="302" height="174" rx="20" fill="#13131a" fill-opacity="0.94" stroke="#ffffff" stroke-opacity="0.10"/>
    <text x="888" y="286" fill="#f0ede8" font-family="Geist, Arial, sans-serif" font-size="22" font-weight="700">Fill-rate risk</text>
    <text x="888" y="346" fill="#ff7b72" font-family="Geist, Arial, sans-serif" font-size="58" font-weight="800">18</text>
    <text x="948" y="344" fill="#a6a09a" font-family="Geist, Arial, sans-serif" font-size="20">SKU/DC risks</text>
    <text x="888" y="386" fill="#a6a09a" font-family="Geist, Arial, sans-serif" font-size="18">before normal freight window</text>

    <rect x="118" y="448" width="616" height="226" rx="20" fill="#1c1c26" fill-opacity="0.90" stroke="#ffffff" stroke-opacity="0.10"/>
    <text x="152" y="494" fill="#f0ede8" font-family="Geist, Arial, sans-serif" font-size="24" font-weight="700">Priority action queue</text>
    <rect x="152" y="526" width="546" height="42" rx="12" fill="#0a0a0f" fill-opacity="0.62"/>
    <rect x="168" y="538" width="42" height="18" rx="9" fill="url(#red)"/>
    <text x="180" y="552" fill="#fff7ed" font-family="Geist Mono, Consolas, monospace" font-size="12" font-weight="700">P1</text>
    <text x="230" y="553" fill="#f0ede8" font-family="Geist, Arial, sans-serif" font-size="17">OTG-CUR-001 · LA DC · 13.5 days supply</text>
    <rect x="152" y="584" width="546" height="42" rx="12" fill="#0a0a0f" fill-opacity="0.46"/>
    <rect x="168" y="596" width="42" height="18" rx="9" fill="url(#red)"/>
    <text x="180" y="610" fill="#fff7ed" font-family="Geist Mono, Consolas, monospace" font-size="12" font-weight="700">P1</text>
    <text x="230" y="611" fill="#f0ede8" font-family="Geist, Arial, sans-serif" font-size="17">OTG-RAM-001 · ship older lot before fresh receipts</text>
    <rect x="152" y="642" width="546" height="12" rx="6" fill="url(#gold)"/>

    <rect x="772" y="448" width="386" height="226" rx="20" fill="#13131a" fill-opacity="0.94" stroke="#ffffff" stroke-opacity="0.10"/>
    <text x="806" y="494" fill="#d4a843" font-family="Geist Mono, Consolas, monospace" font-size="17">QUESTION</text>
    <text x="806" y="532" fill="#f0ede8" font-family="Geist, Arial, sans-serif" font-size="20" font-weight="600">What should we reorder this week?</text>
    <rect x="806" y="562" width="318" height="78" rx="16" fill="#0a0a0f" fill-opacity="0.42" stroke="#ffffff" stroke-opacity="0.10"/>
    <text x="832" y="596" fill="#d4a843" font-family="Geist, Arial, sans-serif" font-size="17" font-weight="700">Answer</text>
    <text x="832" y="624" fill="#b9b2aa" font-family="Geist, Arial, sans-serif" font-size="17">25 SKU/warehouse actions due now.</text>
  </g>
</svg>
