<svg xmlns="http://www.w3.org/2000/svg" width="180" height="180" viewBox="0 0 180 180" role="img" aria-labelledby="title desc">
  <title id="title">StockSense AI Ottogi-style logo mark</title>
  <desc id="desc">A yellow square with a red and white Ottogi-style food operations mark.</desc>
  <rect width="180" height="180" rx="18" fill="#fff300"/>
  <path d="M47 70c2-31 24-52 53-52 30 0 52 21 55 52 18 5 29 20 29 41 0 31-25 52-84 52S16 142 16 111c0-21 11-36 31-41Z" fill="#df2f34"/>
  <path d="M47 70c2-31 24-52 53-52 30 0 52 21 55 52 18 5 29 20 29 41 0 31-25 52-84 52S16 142 16 111c0-21 11-36 31-41Z" fill="none" stroke="#fff" stroke-width="9" stroke-linejoin="round"/>
  <path d="M55 78c2-25 20-43 45-43s43 18 45 43" fill="none" stroke="#fff" stroke-width="7" stroke-linecap="round"/>
  <circle cx="100" cy="58" r="35" fill="#df2f34" stroke="#fff" stroke-width="7"/>
  <path d="M79 54c7-13 26-15 41-5 6 4 10 9 12 15" fill="none" stroke="#fff" stroke-width="6" stroke-linecap="round"/>
  <circle cx="89" cy="65" r="4" fill="#fff"/>
  <circle cx="116" cy="65" r="4" fill="#fff"/>
  <path d="M80 79c12 11 38 10 49-3" fill="none" stroke="#fff" stroke-width="6" stroke-linecap="round"/>
  <text x="90" y="126" text-anchor="middle" fill="#fff" font-family="Apple SD Gothic Neo, Noto Sans KR, Malgun Gothic, Arial, sans-serif" font-size="35" font-weight="900">오뚜기</text>
</svg>
